<mxfile host="app.diagrams.net" modified="2023-08-15T13:52:13.059Z" agent="Mozilla/5.0 (Windows NT 10.0; Win64; x64) AppleWebKit/537.36 (KHTML, like Gecko) Chrome/115.0.0.0 Safari/537.36" etag="Q9p5MkFjLmFZu4f8RUmi" version="21.6.8" type="github">
  <diagram id="C5RBs43oDa-KdzZeNtuy" name="Page-1">
    <mxGraphModel dx="880" dy="478" grid="1" gridSize="10" guides="1" tooltips="1" connect="1" arrows="1" fold="1" page="1" pageScale="1" pageWidth="827" pageHeight="1169" math="0" shadow="0">
      <root>
        <mxCell id="WIyWlLk6GJQsqaUBKTNV-0" />
        <mxCell id="WIyWlLk6GJQsqaUBKTNV-1" parent="WIyWlLk6GJQsqaUBKTNV-0" />
        <mxCell id="154-IF84aSPTszD2tfTp-5" value="número identificador&lt;br&gt;Status" style="text;html=1;align=center;verticalAlign=middle;resizable=0;points=[];autosize=1;strokeColor=none;fillColor=none;" vertex="1" parent="WIyWlLk6GJQsqaUBKTNV-1">
          <mxGeometry x="210" y="730" width="130" height="40" as="geometry" />
        </mxCell>
        <mxCell id="154-IF84aSPTszD2tfTp-37" value="" style="edgeStyle=elbowEdgeStyle;rounded=0;orthogonalLoop=1;jettySize=auto;html=1;" edge="1" parent="WIyWlLk6GJQsqaUBKTNV-1" source="154-IF84aSPTszD2tfTp-9" target="154-IF84aSPTszD2tfTp-35">
          <mxGeometry relative="1" as="geometry" />
        </mxCell>
        <mxCell id="154-IF84aSPTszD2tfTp-39" value="" style="edgeStyle=elbowEdgeStyle;rounded=0;orthogonalLoop=1;jettySize=auto;html=1;" edge="1" parent="WIyWlLk6GJQsqaUBKTNV-1" source="154-IF84aSPTszD2tfTp-9" target="154-IF84aSPTszD2tfTp-38">
          <mxGeometry relative="1" as="geometry" />
        </mxCell>
        <mxCell id="154-IF84aSPTszD2tfTp-9" value="Cliente" style="rounded=0;whiteSpace=wrap;html=1;" vertex="1" parent="WIyWlLk6GJQsqaUBKTNV-1">
          <mxGeometry x="55" y="375" width="110" height="65" as="geometry" />
        </mxCell>
        <mxCell id="154-IF84aSPTszD2tfTp-10" value="Hora de chegada&lt;br&gt;Hora de Saída&lt;br&gt;Número da Vaga&lt;br&gt;" style="text;html=1;align=center;verticalAlign=middle;resizable=0;points=[];autosize=1;strokeColor=none;fillColor=none;" vertex="1" parent="WIyWlLk6GJQsqaUBKTNV-1">
          <mxGeometry x="55" y="315" width="120" height="60" as="geometry" />
        </mxCell>
        <mxCell id="154-IF84aSPTszD2tfTp-13" value="Avulso" style="rounded=0;whiteSpace=wrap;html=1;" vertex="1" parent="WIyWlLk6GJQsqaUBKTNV-1">
          <mxGeometry x="294" y="440" width="120" height="60" as="geometry" />
        </mxCell>
        <mxCell id="154-IF84aSPTszD2tfTp-14" value="Placa&lt;br&gt;Marca&lt;br&gt;Cor do Carro&lt;br&gt;Valor do Estacionamento&lt;br&gt;" style="text;html=1;align=center;verticalAlign=middle;resizable=0;points=[];autosize=1;strokeColor=none;fillColor=none;" vertex="1" parent="WIyWlLk6GJQsqaUBKTNV-1">
          <mxGeometry x="265" y="500" width="160" height="70" as="geometry" />
        </mxCell>
        <mxCell id="154-IF84aSPTszD2tfTp-15" value="Mensalista" style="rounded=0;whiteSpace=wrap;html=1;" vertex="1" parent="WIyWlLk6GJQsqaUBKTNV-1">
          <mxGeometry x="285" y="330" width="120" height="60" as="geometry" />
        </mxCell>
        <mxCell id="154-IF84aSPTszD2tfTp-22" value="Vaga" style="rounded=1;whiteSpace=wrap;html=1;" vertex="1" parent="WIyWlLk6GJQsqaUBKTNV-1">
          <mxGeometry x="55" y="690" width="120" height="50" as="geometry" />
        </mxCell>
        <mxCell id="154-IF84aSPTszD2tfTp-33" value="Nome&lt;br&gt;Valor Mensal" style="text;html=1;align=center;verticalAlign=middle;resizable=0;points=[];autosize=1;strokeColor=none;fillColor=none;" vertex="1" parent="WIyWlLk6GJQsqaUBKTNV-1">
          <mxGeometry x="400" y="340" width="90" height="40" as="geometry" />
        </mxCell>
        <mxCell id="154-IF84aSPTszD2tfTp-36" value="" style="edgeStyle=elbowEdgeStyle;rounded=0;orthogonalLoop=1;jettySize=auto;html=1;" edge="1" parent="WIyWlLk6GJQsqaUBKTNV-1" source="154-IF84aSPTszD2tfTp-35" target="154-IF84aSPTszD2tfTp-22">
          <mxGeometry relative="1" as="geometry" />
        </mxCell>
        <mxCell id="154-IF84aSPTszD2tfTp-35" value="Estaciona" style="rhombus;whiteSpace=wrap;html=1;" vertex="1" parent="WIyWlLk6GJQsqaUBKTNV-1">
          <mxGeometry x="70" y="530" width="80" height="80" as="geometry" />
        </mxCell>
        <mxCell id="154-IF84aSPTszD2tfTp-38" value="" style="triangle;whiteSpace=wrap;html=1;rotation=-90;" vertex="1" parent="WIyWlLk6GJQsqaUBKTNV-1">
          <mxGeometry x="200" y="382.5" width="40" height="50" as="geometry" />
        </mxCell>
        <mxCell id="154-IF84aSPTszD2tfTp-53" value="" style="endArrow=classic;html=1;rounded=0;" edge="1" parent="WIyWlLk6GJQsqaUBKTNV-1">
          <mxGeometry width="50" height="50" relative="1" as="geometry">
            <mxPoint x="235" y="410" as="sourcePoint" />
            <mxPoint x="285" y="360" as="targetPoint" />
          </mxGeometry>
        </mxCell>
        <mxCell id="154-IF84aSPTszD2tfTp-55" value="" style="endArrow=classic;html=1;rounded=0;" edge="1" parent="WIyWlLk6GJQsqaUBKTNV-1">
          <mxGeometry width="50" height="50" relative="1" as="geometry">
            <mxPoint x="235" y="410" as="sourcePoint" />
            <mxPoint x="290" y="460" as="targetPoint" />
          </mxGeometry>
        </mxCell>
      </root>
    </mxGraphModel>
  </diagram>
</mxfile>
